<?xml version="1.0" encoding="UTF-8" standalone="no"?>
<svg
   xmlns:dc="http://purl.org/dc/elements/1.1/"
   xmlns:cc="http://creativecommons.org/ns#"
   xmlns:rdf="http://www.w3.org/1999/02/22-rdf-syntax-ns#"
   xmlns:svg="http://www.w3.org/2000/svg"
   xmlns="http://www.w3.org/2000/svg"
   xmlns:sodipodi="http://sodipodi.sourceforge.net/DTD/sodipodi-0.dtd"
   xmlns:inkscape="http://www.inkscape.org/namespaces/inkscape"
   sodipodi:docname="Mario - oNE.svg"
   inkscape:version="1.0 (4035a4fb49, 2020-05-01)"
   id="svg8"
   version="1.1"
   viewBox="0 0 244.79591 122.39821"
   height="122.39821mm"
   width="244.79591mm">
  <defs
     id="defs2" />
  <sodipodi:namedview
     objecttolerance="38.6"
     inkscape:window-maximized="1"
     inkscape:window-y="-11"
     inkscape:window-x="-11"
     inkscape:window-height="986"
     inkscape:window-width="1920"
     showgrid="false"
     inkscape:document-rotation="0"
     inkscape:current-layer="layer1"
     inkscape:document-units="mm"
     inkscape:cy="391.81487"
     inkscape:cx="966.39225"
     inkscape:zoom="1.356835"
     inkscape:pageshadow="2"
     inkscape:pageopacity="0.0"
     borderopacity="1.0"
     bordercolor="#666666"
     pagecolor="#ffffff"
     id="base"
     fit-margin-top="0"
     fit-margin-left="0"
     fit-margin-right="0"
     fit-margin-bottom="0" />
  <metadata
     id="metadata5">
    <rdf:RDF>
      <cc:Work
         rdf:about="">
        <dc:format>image/svg+xml</dc:format>
        <dc:type
           rdf:resource="http://purl.org/dc/dcmitype/StillImage" />
        <dc:title />
      </cc:Work>
    </rdf:RDF>
  </metadata>
  <g
     id="layer1"
     inkscape:groupmode="layer"
     inkscape:label="Calque 1"
     transform="translate(1.8830892,-33.683215)">
    <rect
       style="opacity:1;fill:#e75a10;fill-opacity:1;stroke-width:0.36;stroke-linecap:round;paint-order:stroke fill markers"
       id="rect10293"
       width="244.79591"
       height="122.39821"
       x="-1.8830892"
       y="33.683216" />
    <path
       d="m 181.71431,89.319104 v 1.390613 h -1.39113 v 1.391131 1.390613 h -1.39113 v 1.391129 1.390613 h -1.39061 v 1.391129 1.390613 1.391125 1.39113 1.39062 1.39113 1.39061 1.39113 1.39061 1.39113 1.39061 1.39113 1.39062 1.39113 1.39061 1.39113 1.39061 1.39113 1.39061 1.39113 1.39113 1.39062 1.39112 1.39062 1.39113 1.39061 1.39113 1.39061 1.39113 1.39061 h 1.39061 v 1.39113 1.39061 h 1.39113 v 1.39113 1.39062 h 1.39061 v 1.39113 h 1.39113 1.39061 1.39113 1.39113 1.39062 1.39113 1.39061 1.39113 v -1.39113 h 1.39061 v -1.39062 -1.39113 h 1.39113 v -1.39061 -1.39113 h 1.39061 v -1.39061 -1.39113 -1.39061 -1.39113 -1.39061 -1.39113 -1.39062 -1.39113 -1.39061 -1.39113 -1.39113 -1.39061 -1.39113 -1.39061 -1.39113 -1.39062 -1.39112 -1.39062 -1.39113 -1.39061 -1.39113 -1.39061 -1.39113 -1.39061 -1.39113 -1.39062 -1.39113 -1.391125 -1.390613 -1.391129 h -1.39061 V 94.88259 93.491461 h -1.39113 v -1.390613 -1.391131 h -1.39061 v -1.390613 h -1.39113 -1.39061 -1.39113 -1.39062 -1.39113 -1.39061 -1.39113 z m 4.17235,11.126966 h 1.39113 1.39062 v 1.39113 1.39062 1.39113 1.39061 1.39113 1.39061 1.39113 1.39061 1.39113 1.39062 1.39113 1.39061 1.39113 1.39061 1.39113 1.39061 1.39113 1.39113 1.39062 1.39112 1.39062 1.39113 1.39061 1.39113 h -1.39062 -5.2e-4 -1.39062 v -1.39113 -1.39061 -1.39113 -1.39062 -1.39113 -1.39061 -1.39113 -1.39113 -1.39061 -1.39113 -1.39061 -1.39113 -1.39062 -1.39112 -1.39062 -1.39113 -1.39061 -1.39113 -1.39061 -1.39113 -1.39061 -1.39113 -1.39062 z"
       style="opacity:0.91;fill:#f7d6b5;fill-opacity:1;stroke-width:1.12729;stroke-linecap:round;paint-order:stroke fill markers"
       id="rect237-7-7-4-4-4-3" />
    <path
       d="m 197.01363,100.44607 v 1.39113 1.39062 1.39113 1.39061 1.39113 1.39061 1.39113 1.39061 1.39113 1.39062 1.39113 1.39061 1.39113 1.39061 1.39113 1.39113 1.39061 1.39113 1.39062 1.39112 1.39062 1.39113 1.39061 1.39113 1.39061 1.39113 1.39061 h -1.39061 v 1.39113 1.39061 h -1.39113 v 1.39113 1.39062 h -1.39061 v 1.39113 h -1.39113 -1.39061 -1.39113 -1.39113 -1.39062 -1.39113 -1.39061 -1.39113 v -1.39113 h -1.39061 v 1.39113 1.39061 h 1.39061 v 1.39113 1.39113 h 1.39113 v 1.39061 h 1.39061 1.39113 1.39062 1.39113 1.39113 1.39061 1.39113 1.39061 v -1.39061 h 1.39113 v -1.39113 -1.39113 h 1.39061 v -1.39061 -1.39113 h 1.39113 v -1.39062 -1.39113 -1.39061 -1.39113 -1.39061 -1.39113 -1.39061 -1.39113 -1.39061 -1.39113 -1.39062 -1.39113 -1.39061 -1.39113 -1.39061 -1.39113 -1.39113 -1.39061 -1.39113 -1.39062 -1.39112 -1.39062 -1.39113 -1.39061 -1.39113 -1.39061 -1.39113 -1.39061 -1.39113 -1.39062 -1.39113 z m -16.69045,43.11727 v -1.39062 -1.39113 h -1.39113 v 1.39113 1.39062 z"
       style="opacity:1;fill:#000000;fill-opacity:1;stroke-width:1.12729;stroke-linecap:round;paint-order:stroke fill markers"
       id="rect237-5-9-2-6-75-8-8-0-7-0-4-9-0-8-6-3-45-2-3" />
    <path
       d="m 185.88666,100.44607 v 1.39113 1.39062 1.39113 1.39061 1.39113 1.39061 1.39113 1.39061 1.39113 1.39062 1.39113 1.39061 1.39113 1.39061 1.39113 1.39061 1.39113 1.39113 1.39062 1.39112 1.39062 1.39113 1.39061 1.39113 h 1.39113 v -1.39113 -1.39061 -1.39113 -1.39062 -1.39113 -1.39061 -1.39113 -1.39113 -1.39061 -1.39113 -1.39061 -1.39113 -1.39062 -1.39112 -1.39062 -1.39113 -1.39061 -1.39113 -1.39061 -1.39113 h 1.39062 v -1.39061 -1.39113 -1.39062 -1.39113 h -1.39062 z"
       style="opacity:1;fill:#000000;fill-opacity:1;stroke-width:1.12729;stroke-linecap:round;paint-order:stroke fill markers"
       id="rect237-7-4-4-2-6-7-2-7-4-30-3-20" />
    <path
       d="m 155.28727,89.31909 v 1.390613 1.391131 1.390613 1.391129 1.390613 1.391129 1.390613 1.391129 1.39113 1.39061 1.39114 1.39061 1.39113 1.39061 1.39113 1.39061 1.39113 1.39062 1.39113 1.39061 1.39113 1.39061 1.39113 1.39061 1.39113 1.39113 1.39062 1.39112 1.39062 1.39113 1.39061 1.39113 1.39061 1.39113 1.39062 1.39112 1.39062 1.39113 1.39061 1.39113 h 1.39113 1.39062 1.39112 1.39062 1.39113 1.39061 v -1.39113 -1.39061 -1.39113 -1.39062 -1.39112 -1.39062 -1.39113 -1.39061 -1.39113 -1.39061 -1.39113 -1.39062 -1.39112 -1.39062 -1.39113 -1.39113 -1.39061 -1.39113 -1.39061 -1.39113 -1.39061 -1.39113 -1.39062 -1.39113 -1.39061 -1.39113 -1.39061 -1.39113 -1.39061 -1.39114 -1.39061 -1.39113 h 1.39113 1.39061 v 1.39113 1.39061 1.39114 1.39061 1.39113 1.39061 1.39113 1.39061 h -1.39061 v 1.39113 1.39062 1.39113 1.39061 1.39113 1.39061 1.39113 1.39113 h 1.39061 v 1.39061 1.39113 1.39062 1.39112 1.39062 1.39113 1.39061 1.39113 1.39061 1.39113 1.39062 1.39112 1.39062 1.39113 1.39061 1.39113 h 1.39113 1.39061 1.39114 1.39112 1.39062 1.39113 v -1.39113 -1.39061 -1.39113 -1.39062 -1.39112 -1.39062 -1.39113 -1.39061 -1.39113 -1.39061 -1.39113 -1.39062 -1.39112 -1.39062 -1.39113 -1.39061 -1.39113 -1.39113 h -1.39113 v -1.39061 h -1.39062 v -1.39113 h 1.39062 v -1.39061 h 1.39113 v -1.39113 -1.39062 -1.39113 -1.39061 -1.39113 -1.39061 -1.39113 -1.39061 -1.39114 -1.39061 -1.39113 -1.391129 -1.390613 -1.391129 h -1.39113 v -1.390613 -1.391129 h -1.39062 v -1.390613 -1.391131 h -1.39113 V 89.31909 h -1.39061 -1.39113 -1.39113 -1.39061 -1.39113 -1.39061 -1.39113 -1.39062 -1.39112 -1.39062 z"
       style="opacity:0.91;fill:#f7d6b5;fill-opacity:1;stroke-width:1.12729;stroke-linecap:round;paint-order:stroke fill markers"
       id="rect237-7-4-4-0-8-9-0-0-1-9-0-3-6-7-9" />
    <path
       d="m 163.6325,100.44606 v 1.39061 1.39113 1.39114 1.39061 1.39113 1.39061 1.39113 1.39061 1.39113 1.39062 1.39113 1.39061 1.39113 1.39061 1.39113 1.39061 1.39113 1.39062 1.39113 1.39111 1.39062 1.39113 1.39062 1.39113 1.39061 1.39113 1.39062 1.39112 1.39062 1.39113 1.39061 1.39113 h -1.39061 -1.39113 -1.39062 -1.39112 -1.39062 v 1.39061 1.39113 1.39113 1.39061 h 1.39062 1.39112 1.39062 1.39113 1.39061 1.39113 v -1.39061 -1.39113 -1.39113 -1.39061 -1.39113 -1.39061 -1.39113 -1.39062 -1.39112 -1.39062 -1.39113 -1.39061 -1.39113 -1.39062 -1.39113 -1.39061 -1.39112 -1.39113 -1.39062 -1.39113 -1.39061 -1.39113 -1.39061 -1.39113 -1.39061 -1.39113 -1.39062 -1.39113 -1.39061 -1.39113 -1.39061 -1.39113 h 1.39061 v -1.39061 -1.39114 -1.39113 -1.39061 h -1.39061 z"
       style="opacity:1;fill:#000000;fill-opacity:1;stroke-width:1.12729;stroke-linecap:round;paint-order:stroke fill markers"
       id="rect237-7-4-4-2-6-7-2-7-4-30-78-5" />
    <path
       d="m 174.75999,125.48225 v 1.39062 1.39112 1.39062 1.39113 1.39061 1.39113 1.39061 1.39113 1.39063 1.39112 1.39062 1.39113 1.39061 1.39113 h -1.39113 -1.39062 -1.39113 -1.39113 -1.39061 v 1.39061 1.39113 1.39113 1.39061 h 1.39061 1.39113 1.39113 1.39062 1.39113 1.39061 v -1.39061 -1.39113 -1.39061 -1.39113 -1.39113 -1.39061 -1.39113 -1.39062 -1.39112 -1.39063 -1.39113 -1.39061 -1.39113 -1.39061 -1.39113 -1.39062 -1.39112 -1.39062 z"
       style="opacity:1;fill:#000000;fill-opacity:1;stroke-width:1.12729;stroke-linecap:round;paint-order:stroke fill markers"
       id="rect237-7-4-4-2-6-7-2-7-4-1-9-5-9-3-2-9-9-5-2-8" />
    <path
       d="m 174.75999,100.44606 v 1.39113 1.39061 1.39114 1.39061 1.39113 1.39061 1.39113 1.39061 1.39113 1.39062 1.39113 h -1.39113 v 1.39061 h -1.39062 v 1.39113 h 1.39062 v 1.39061 h 1.39113 v 1.39113 h 1.39061 v -1.39113 -1.39061 -1.39113 -1.39061 -1.39113 -1.39062 -1.39113 -1.39061 -1.39113 -1.39061 -1.39113 -1.39061 -1.39114 -1.39061 -1.39113 z"
       style="opacity:1;fill:#000000;fill-opacity:1;stroke-width:1.12729;stroke-linecap:round;paint-order:stroke fill markers"
       id="rect237-7-4-4-2-6-7-2-7-4-1-9-5-9-3-2-9-9-5-2-4-4" />
    <path
       id="rect237"
       style="opacity:1;fill:#f7d6b5;fill-opacity:1;stroke-width:4.26062;stroke-linecap:round;paint-order:stroke fill markers"
       d="m 55.966797,337.58398 v 5.25586 h -5.257813 v 5.25782 5.25586 h -5.255859 v 5.25781 5.25586 h -5.257813 v 5.25781 5.25586 5.25781 5.25781 5.25586 5.25782 5.25586 5.25781 5.25586 5.25781 5.25586 5.25781 5.25586 5.25781 5.25586 5.25782 5.25586 5.25781 5.25586 5.25781 5.25781 5.25586 5.25781 5.25586 5.25782 5.25586 5.25781 5.25586 5.25781 5.25586 5.25781 5.25586 5.25781 5.25586 5.25782 h 5.257813 5.255859 5.257813 5.255859 5.257813 5.255859 v -5.25782 -5.25586 -5.25781 -5.25586 -5.25781 -5.25586 -5.25781 -5.25586 -5.25781 -5.25586 -5.25782 -5.25586 -5.25781 -5.25586 -5.25781 -5.25781 -5.25586 -5.25781 -5.25586 -5.25782 -5.25586 -5.25781 -5.25586 -5.25781 -5.25586 -5.25781 -5.25586 -5.25781 -5.25586 -5.25782 -5.25586 -5.25781 H 76.994141 82.25 v 5.25781 5.25586 5.25782 5.25586 5.25781 5.25586 5.25781 5.25586 5.25781 5.25586 5.25781 5.25586 5.25782 5.25586 5.25781 5.25586 5.25781 5.25781 5.25586 5.25781 5.25586 5.25782 5.25586 5.25781 5.25586 5.25781 5.25586 5.25781 5.25586 5.25781 5.25586 5.25782 h 5.257812 5.25586 5.257812 5.255856 5.25782 5.25586 v -5.25782 -5.25586 -5.25781 -5.25586 -5.25781 -5.25586 -5.25781 -5.25586 -5.25781 -5.25586 -5.25782 -5.25586 -5.25781 -5.25586 -5.25781 -5.25781 -5.25586 -5.25781 -5.25586 -5.25782 -5.25586 -5.25781 -5.25586 -5.25781 -5.25586 -5.25781 -5.25586 -5.25781 -5.25586 -5.25782 -5.25586 -5.25781 h 5.25781 5.25586 v 5.25781 5.25586 5.25782 5.25586 5.25781 5.25586 5.25781 5.25586 5.25781 5.25586 5.25781 5.25586 5.25782 5.25586 5.25781 5.25586 5.25781 5.25781 5.25586 5.25781 5.25586 5.25782 5.25586 5.25781 5.25586 5.25781 5.25586 5.25781 5.25586 5.25781 5.25586 5.25782 h 5.25781 5.25781 5.25586 5.25781 5.25586 5.25782 v -5.25782 -5.25586 -5.25781 -5.25586 -5.25781 -5.25586 -5.25781 -5.25586 -5.25781 -5.25586 -5.25782 -5.25586 -5.25781 -5.25586 -5.25781 -5.25781 -5.25586 -5.25781 -5.25586 -5.25782 -5.25586 -5.25781 -5.25586 -5.25781 -5.25586 -5.25781 -5.25586 -5.25781 -5.25586 -5.25782 -5.25586 -5.25781 -5.25781 -5.25586 -5.25781 h -5.25782 v -5.25586 -5.25781 h -5.25586 v -5.25586 -5.25782 h -5.25781 v -5.25586 h -5.25586 -5.25781 -5.25781 -5.25586 -5.25781 v 5.25586 h -5.25586 v 5.25782 5.25586 h -5.25782 v 5.25781 5.25586 h -5.255856 -5.257812 v -5.25586 -5.25781 h -5.25586 v -5.25586 -5.25782 H 82.25 v -5.25586 h -5.255859 -5.257813 -5.255859 -5.257813 z"
       transform="scale(0.26458333)" />
    <path
       id="rect237-9-0"
       style="opacity:1;fill:#f7d6b5;fill-opacity:1;stroke-width:4.26062;stroke-linecap:round;paint-order:stroke fill markers"
       d="m 182.13086,337.58398 v 5.25586 H 176.875 v 5.25782 5.25586 h -5.25781 v 5.25781 5.25586 h -5.25586 v 5.25781 5.25586 5.25781 5.25781 5.25586 5.25782 5.25586 5.25781 5.25586 5.25781 5.25586 5.25781 5.25586 5.25781 5.25586 5.25782 5.25586 5.25781 5.25586 5.25781 5.25781 5.25586 5.25781 5.25586 5.25782 5.25586 5.25781 5.25586 5.25781 5.25586 5.25781 5.25586 5.25781 5.25586 5.25782 h 5.25586 5.25781 5.25586 5.25781 5.25586 5.25781 v -5.25782 -5.25586 -5.25781 -5.25586 -5.25781 -5.25586 -5.25781 -5.25586 h 5.25586 5.25782 v 5.25586 5.25781 5.25586 5.25781 5.25586 5.25781 5.25586 5.25782 h 5.25586 5.25781 5.25781 5.25586 5.25781 5.25586 v -5.25782 -5.25586 -5.25781 -5.25586 -5.25781 -5.25586 -5.25781 -5.25586 -5.25781 -5.25586 -5.25782 -5.25586 -5.25781 -5.25586 -5.25781 -5.25781 -5.25586 -5.25781 -5.25586 -5.25782 -5.25586 -5.25781 -5.25586 -5.25781 -5.25586 -5.25781 -5.25586 -5.25781 -5.25586 -5.25782 -5.25586 -5.25781 -5.25781 -5.25586 -5.25781 h -5.25586 v -5.25586 -5.25781 h -5.25781 v -5.25586 -5.25782 h -5.25586 v -5.25586 h -5.25781 -5.25781 -5.25586 -5.25782 -5.25586 -5.25781 -5.25586 z m 15.77148,42.05469 h 5.25586 5.25782 v 5.25781 5.25586 5.25782 5.25586 5.25781 5.25586 5.25781 5.25586 5.25781 5.25586 5.25781 5.25586 5.25782 5.25586 5.25781 5.25586 h -5.25782 -5.25586 v -5.25586 -5.25781 -5.25586 -5.25782 -5.25586 -5.25781 -5.25586 -5.25781 -5.25586 -5.25781 -5.25586 -5.25781 -5.25586 -5.25782 -5.25586 z"
       transform="scale(0.26458333)" />
    <path
       id="rect237-5-9-2-6-75-8-8-0-6-1-3-8"
       style="opacity:1;fill:#f7d6b5;fill-opacity:1;stroke-width:4.26062;stroke-linecap:round;paint-order:stroke fill markers"
       d="m 334.58203,337.58398 v 5.25586 5.25782 5.25586 5.25781 5.25586 5.25781 5.25586 5.25781 5.25781 5.25586 5.25782 5.25586 5.25781 5.25586 5.25781 5.25586 5.25781 5.25586 5.25781 5.25586 5.25782 5.25586 5.25781 5.25586 5.25781 5.25781 5.25586 5.25781 5.25586 5.25782 5.25586 5.25781 5.25586 5.25781 5.25586 5.25781 5.25586 5.25781 5.25586 5.25782 h 5.25586 5.25781 5.25586 5.25782 5.25585 5.25782 v -5.25782 -5.25586 -5.25781 -5.25586 -5.25781 -5.25586 -5.25781 -5.25586 -5.25781 -5.25586 -5.25782 -5.25586 -5.25781 -5.25586 -5.25781 -5.25781 -5.25586 -5.25781 -5.25586 -5.25782 -5.25586 -5.25781 -5.25586 -5.25781 -5.25586 -5.25781 -5.25586 -5.25781 -5.25586 -5.25782 -5.25586 -5.25781 -5.25781 -5.25586 -5.25781 -5.25586 -5.25781 -5.25586 -5.25782 -5.25586 h -5.25782 -5.25585 -5.25782 -5.25586 -5.25781 z"
       transform="scale(0.26458333)" />
    <path
       id="rect237-7-7-4-4-4"
       style="opacity:1;fill:#f7d6b5;fill-opacity:1;stroke-width:4.26062;stroke-linecap:round;paint-order:stroke fill markers"
       d="m 392.4082,337.58398 v 5.25586 h -5.25781 v 5.25782 5.25586 h -5.25781 v 5.25781 5.25586 h -5.25586 v 5.25781 5.25586 5.25781 5.25781 5.25586 5.25782 5.25586 5.25781 5.25586 5.25781 5.25586 5.25781 5.25586 5.25781 5.25586 5.25782 5.25586 5.25781 5.25586 5.25781 5.25781 5.25586 5.25781 5.25586 5.25782 5.25586 5.25781 5.25586 5.25781 5.25586 h 5.25586 v 5.25781 5.25586 h 5.25781 v 5.25781 5.25586 h 5.25586 v 5.25782 h 5.25781 5.25586 5.25781 5.25782 5.25586 5.25781 5.25586 5.25781 v -5.25782 h 5.25586 v -5.25586 -5.25781 h 5.25781 v -5.25586 -5.25781 h 5.25586 v -5.25586 -5.25781 -5.25586 -5.25781 -5.25586 -5.25782 -5.25586 -5.25781 -5.25586 -5.25781 -5.25781 -5.25586 -5.25781 -5.25586 -5.25782 -5.25586 -5.25781 -5.25586 -5.25781 -5.25586 -5.25781 -5.25586 -5.25781 -5.25586 -5.25782 -5.25586 -5.25781 -5.25781 -5.25586 -5.25781 h -5.25586 v -5.25586 -5.25781 h -5.25781 v -5.25586 -5.25782 h -5.25586 v -5.25586 h -5.25781 -5.25586 -5.25781 -5.25586 -5.25782 -5.25585 -5.25782 z m 15.76953,42.05469 h 5.25782 5.25586 v 5.25781 5.25586 5.25782 5.25586 5.25781 5.25586 5.25781 5.25586 5.25781 5.25586 5.25781 5.25586 5.25782 5.25586 5.25781 5.25586 5.25781 5.25781 5.25586 5.25781 5.25586 5.25782 5.25586 5.25781 h -5.25586 -0.002 -5.25586 v -5.25781 -5.25586 -5.25782 -5.25586 -5.25781 -5.25586 -5.25781 -5.25781 -5.25586 -5.25781 -5.25586 -5.25782 -5.25586 -5.25781 -5.25586 -5.25781 -5.25586 -5.25781 -5.25586 -5.25781 -5.25586 -5.25782 -5.25586 z"
       transform="scale(0.26458333)" />
    <path
       id="rect237-5-9-2-6-75-8-8-0-6-1-3-8-1"
       style="opacity:1;fill:#f7d6b5;fill-opacity:1;stroke-width:4.26062;stroke-linecap:round;paint-order:stroke fill markers"
       d="m 502.80273,337.58398 v 5.25586 5.25782 5.25586 5.25781 5.25586 5.25781 5.25586 5.25781 5.25781 5.25586 5.25782 h -0.002 v 5.25586 5.25781 5.25586 5.25781 5.25586 5.25781 5.25586 5.25781 5.25586 5.25782 5.25586 5.25781 5.25586 5.25781 5.25781 5.25586 5.25781 5.25586 5.25782 5.25586 5.25781 5.25586 5.25781 5.25586 5.25781 5.25586 5.25781 5.25586 5.25782 h 5.25781 5.25782 5.25586 5.25781 5.25586 5.25781 v -5.25782 -5.25586 -5.25781 -5.25586 -5.25781 -5.25586 -5.25781 -5.25586 -5.25781 -5.25586 -5.25782 -5.25586 -5.25781 -5.25586 -5.25781 -5.25781 -5.25586 -5.25781 -5.25586 -5.25782 -5.25586 -5.25781 -5.25586 -5.25781 -5.25586 -5.25781 -5.25586 -5.25781 -5.25586 -5.25782 -5.25586 -5.25781 h 5.25586 5.25781 v 5.25781 5.25586 5.25782 5.25586 5.25781 5.25586 5.25781 5.25586 h -5.25781 v 5.25781 5.25586 5.25781 5.25586 5.25782 5.25586 5.25781 5.25586 h 5.25781 v 5.25781 5.25586 5.25781 5.25586 5.25781 5.25782 5.25586 5.25781 h -5.25781 v 5.25586 5.25781 5.25586 5.25781 5.25586 5.25781 5.25586 5.25782 h 5.25781 5.25586 5.25781 5.25586 v -5.25782 h 5.25782 v -5.25586 -5.25781 h 5.25585 v -5.25586 -5.25781 h 5.25782 v -5.25586 -5.25781 -5.25586 -5.25781 -5.25586 -5.25782 -5.25781 -5.25586 -5.25781 -5.25586 -5.25781 -5.25586 -5.25781 h -5.25782 v -5.25586 h -5.25585 v -5.25782 h 5.25585 v -5.25586 h 5.25782 v -5.25781 -5.25586 -5.25781 -5.25586 -5.25781 -5.25586 -5.25781 -5.25586 -5.25782 -5.25586 -5.25781 -5.25781 -5.25586 -5.25781 h -5.25782 v -5.25586 -5.25781 h -5.25585 v -5.25586 -5.25782 h -5.25782 v -5.25586 h -5.25586 -5.25781 -5.25586 -5.25781 -5.25586 -5.25781 -5.25586 -5.25781 -5.25586 -5.25782 z"
       transform="scale(0.26458333)" />
    <path
       id="rect237-7-7-4-4-4-2-8"
       style="opacity:1;fill:#f7d6b5;fill-opacity:1;stroke-width:4.26062;stroke-linecap:round;paint-order:stroke fill markers"
       d="m 770.9043,337.58398 v 5.25586 h -5.25782 v 5.25782 5.25586 h -5.25781 v 5.25781 5.25586 h -5.25586 v 5.25781 5.25586 5.25781 5.25781 5.25586 5.25782 5.25586 5.25781 5.25586 5.25781 5.25586 5.25781 5.25586 h 5.25586 v 5.25781 5.25586 h 5.25781 v 5.25782 h 5.25586 5.25782 v 5.25586 h 5.25781 5.25586 v 5.25781 h 5.25781 5.25586 v 5.25586 5.25781 5.25781 5.25586 5.25781 5.25586 5.25782 5.25586 5.25781 h -5.25586 -0.002 -5.25586 v -5.25781 -5.25586 -5.25782 -5.25586 -5.25781 -5.25586 -5.25781 -5.25781 h -5.25586 -5.25781 -5.25782 -5.25586 -5.25781 -5.25586 v 5.25781 5.25781 5.25586 5.25781 5.25586 5.25782 5.25586 5.25781 5.25586 5.25781 5.25586 h 5.25586 v 5.25781 5.25586 h 5.25781 v 5.25781 5.25586 h 5.25586 v 5.25782 h 5.25782 5.25586 5.25781 5.25781 5.25586 5.25781 5.25586 5.25781 v -5.25782 h 5.25586 v -5.25586 -5.25781 h 5.25782 v -5.25586 -5.25781 h 5.25586 v -5.25586 -5.25781 -5.25586 -5.25781 -5.25586 -5.25782 -5.25586 -5.25781 -5.25586 -5.25781 -5.25781 -5.25586 -5.25781 h -5.25586 v -5.25586 -5.25782 h -5.25782 v -5.25586 h -5.25586 -5.25781 v -5.25781 h -5.25586 -5.25781 v -5.25586 h -5.25586 v -5.25781 h -5.25781 v -5.25586 -5.25781 -5.25586 -5.25781 -5.25586 -5.25782 -5.25586 -5.25781 h 5.25781 5.25586 v 5.25781 5.25586 5.25782 5.25586 5.25781 5.25586 5.25781 5.25586 h 5.25781 5.25586 5.25781 5.25586 5.25782 5.25586 v -5.25586 -5.25781 -5.25586 -5.25781 -5.25586 -5.25782 -5.25586 -5.25781 -5.25781 -5.25586 -5.25781 h -5.25586 v -5.25586 -5.25781 h -5.25782 v -5.25586 -5.25782 h -5.25586 v -5.25586 h -5.25781 -5.25586 -5.25781 -5.25586 -5.25781 -5.25586 -5.25781 z"
       transform="scale(0.26458333)" />
    <path
       id="rect237-7-4-4-2-6-7-2-7-4-1-6-8-0-64-9-5-14-1-5-0-0-1-0"
       style="opacity:1;fill:#f7d6b5;fill-opacity:1;stroke-width:4.26062;stroke-linecap:round;paint-order:stroke fill markers"
       d="m 839.24219,505.80469 v 5.25586 5.25781 5.25586 5.25781 5.25586 5.25781 5.25586 5.25782 h 5.25781 5.25586 5.25781 5.25586 5.25781 5.25586 v -5.25782 -5.25586 -5.25781 -5.25586 -5.25781 -5.25586 -5.25781 -5.25586 h -5.25586 -5.25781 -5.25586 -5.25781 H 844.5 Z"
       transform="scale(0.26458333)" />
    <path
       id="rect237-7-7-4-4-4-0-5-5-6-0-4-7"
       style="opacity:1;fill:#000000;stroke-width:4.26062;stroke-linecap:round;paint-order:stroke fill markers"
       d="m 870.7832,526.83203 v 5.25586 5.25781 5.25586 5.25782 h -5.25586 -5.25781 -5.25586 -5.25781 H 844.5 v 5.25585 5.25782 5.25781 5.25586 h 5.25586 5.25781 5.25586 5.25781 5.25586 5.25782 v -5.25586 -5.25781 -5.25782 -5.25585 -5.25782 -5.25586 -5.25781 -5.25586 z"
       transform="scale(0.26458333)" />
    <path
       id="rect237-7-7-4-4-4-0-5-3-9-5-9-9-6-9-8"
       style="opacity:1;fill:#f6cba6;fill-opacity:1;stroke-width:4.26062;stroke-linecap:round;paint-order:stroke fill markers"
       d="m 891.8125,563.63086 v 5.25586 5.25781 h 5.25586 5.25781 v -5.25781 -5.25586 h -5.25781 z"
       transform="scale(0.26458333)" />
    <path
       id="rect237-7-7-4-4-4-0-5-3-9-1-4-8-2-0-9-0-9"
       style="opacity:1;fill:#000000;stroke-width:4.26062;stroke-linecap:round;paint-order:stroke fill markers"
       d="m 902.32617,568.88672 v 5.25781 h -5.25781 v 5.25586 h 5.25781 5.25586 v -5.25586 -5.25781 z"
       transform="scale(0.26458333)" />
    <path
       id="rect237-9-5"
       style="opacity:1;fill:#f7d6b5;fill-opacity:1;stroke-width:4.26062;stroke-linecap:round;paint-order:stroke fill markers"
       d="m 55.966797,169.36328 v 5.25586 h -5.257813 v 5.25781 5.25586 h -5.255859 v 5.25781 5.25586 h -5.257813 v 5.25782 5.25586 5.25781 5.25781 5.25586 h 5.257813 v 5.25781 5.25586 h 5.255859 v 5.25781 h 5.257813 5.255859 v 5.25586 h 5.257813 5.255859 v 5.25782 H 76.994141 82.25 v 5.25586 h -5.255859 -5.257813 -5.255859 -5.257813 -5.255859 -5.257813 -5.255859 -5.257813 v 5.25781 5.25586 5.25781 h 5.257813 v 5.25586 5.25781 h 5.255859 v 5.25586 5.25781 h 5.257813 v 5.25782 h 5.255859 5.257813 5.255859 5.257813 5.255859 5.257812 5.25586 5.257812 v -5.25782 h 5.255856 v -5.25781 -5.25586 h 5.25782 V 274.5 269.24414 h 5.25586 v -5.25781 -5.25586 -5.25781 -5.25586 -5.25782 h -5.25586 v -5.25586 -5.25781 h -5.25782 v -5.25586 h -5.255856 -5.257812 v -5.25781 H 87.507812 82.25 v -5.25586 h -5.255859 v -5.25781 H 82.25 h 5.257812 5.25586 5.257812 5.255856 5.25782 5.25586 v -5.25781 -5.25586 -5.25782 h -5.25586 v -5.25586 -5.25781 h -5.25782 v -5.25586 -5.25781 h -5.255856 v -5.25586 H 92.763672 87.507812 82.25 76.994141 71.736328 66.480469 61.222656 Z"
       transform="scale(0.26458333)" />
    <path
       id="rect237-5-9-2-6-75-8-2-0-1"
       style="opacity:1;fill:#f7d6b5;fill-opacity:1;stroke-width:4.26062;stroke-linecap:round;paint-order:stroke fill markers"
       d="m 208.41602,169.36328 v 5.25586 5.25781 5.25586 5.25781 5.25586 5.25782 5.25781 5.25586 5.25781 5.25586 5.25781 5.25586 5.25781 5.25586 5.25782 5.25586 5.25781 5.25586 5.25781 5.25586 5.25781 5.25781 5.25586 5.25782 h 5.25586 5.25781 5.25781 5.25586 5.25781 5.25586 v -5.25782 -5.25586 -5.25781 -5.25781 -5.25586 -5.25781 -5.25586 -5.25781 -5.25586 -5.25782 -5.25586 -5.25781 -5.25586 -5.25781 -5.25586 -5.25781 h 5.25781 v 5.25781 5.25586 5.25781 5.25586 5.25781 5.25586 5.25782 5.25586 h 5.25586 5.25782 5.25586 5.25781 v -5.25586 h 5.25586 v -5.25782 -5.25586 h 5.25781 v -5.25781 -5.25586 h 5.25586 v -5.25781 -5.25586 -5.25781 -5.25586 -5.25781 -5.25782 h -5.25586 v -5.25586 -5.25781 h -5.25781 v -5.25586 -5.25781 h -5.25586 v -5.25586 h -5.25781 -5.25586 -5.25782 -5.25586 -5.25781 -5.25586 -5.25781 -5.25586 -5.25781 -5.25586 z"
       transform="scale(0.26458333)" />
    <path
       id="rect237-7-4-5-8-6-5-0-0-79-1-2-7"
       style="opacity:1;fill:#f7d6b5;fill-opacity:1;stroke-width:4.26062;stroke-linecap:round;paint-order:stroke fill markers"
       d="m 308.29688,169.36328 v 5.25586 h -5.25586 v 5.25781 5.25586 h -5.25782 v 5.25781 5.25586 h -5.25781 v 5.25782 5.25781 5.25586 5.25781 5.25586 5.25781 5.25586 5.25781 5.25586 5.25782 5.25586 5.25781 5.25586 5.25781 h 5.25781 v 5.25586 5.25781 h 5.25586 v 5.25781 5.25586 h 5.25782 v 5.25782 h 5.25781 5.25586 5.25781 5.25586 5.25781 5.25586 5.25781 5.25586 5.25782 5.25585 5.25782 v -5.25782 -5.25586 -5.25781 -5.25781 -5.25586 -5.25781 -5.25586 -5.25781 h -5.25782 -5.25585 -5.25782 -5.25586 -5.25781 -5.25586 -5.25781 -5.25586 v -5.25586 -5.25782 -5.25586 -5.25781 -5.25586 -5.25781 -5.25586 -5.25781 h 5.25586 5.25781 5.25586 5.25781 5.25586 5.25782 5.25585 5.25782 v -5.25586 -5.25781 -5.25782 -5.25586 -5.25781 -5.25586 -5.25781 -5.25586 h -5.25782 -5.25585 -5.25782 -5.25586 -5.25781 -5.25586 -5.25781 -5.25586 -5.25781 -5.25586 z"
       transform="scale(0.26458333)" />
    <path
       id="rect237-5-9-2-6-75-6-2-2-2-9-1"
       style="opacity:1;fill:#f7d6b5;fill-opacity:1;stroke-width:4.26062;stroke-linecap:round;paint-order:stroke fill markers"
       d="m 329.32422,216.67578 v 5.25586 5.25781 5.25586 5.25781 5.25586 5.25782 h 5.25781 5.25586 5.25781 5.25586 5.25782 5.25585 v -5.25782 -5.25586 -5.25781 -5.25586 -5.25781 -5.25586 h -5.25585 -5.25782 -5.25586 -5.25781 -5.25586 z"
       transform="scale(0.26458333)" />
    <path
       id="rect237-5-9-2-6-75-8-2-0-1-9"
       style="opacity:1;fill:#f7d6b5;fill-opacity:1;stroke-width:4.26062;stroke-linecap:round;paint-order:stroke fill markers"
       d="m 376.63672,169.36328 v 5.25586 5.25781 5.25586 5.25781 5.25586 5.25782 5.25781 5.25586 5.25781 5.25586 5.25781 5.25586 5.25781 5.25586 5.25782 5.25586 5.25781 5.25586 5.25781 5.25586 5.25781 5.25781 5.25586 5.25782 h 5.25586 5.25781 5.25586 5.25781 5.25782 5.25585 v -5.25782 -5.25586 -5.25781 -5.25781 -5.25586 -5.25781 -5.25586 -5.25781 -5.25586 -5.25782 -5.25586 -5.25781 -5.25586 -5.25781 -5.25586 -5.25781 h 5.25782 v 5.25781 5.25586 5.25781 5.25586 5.25781 5.25586 5.25782 5.25586 h 5.25586 v 5.25781 5.25586 5.25781 5.25586 5.25781 5.25586 5.25781 5.25586 h 5.25781 5.25586 5.25781 5.25586 5.25781 5.25586 v -5.25586 -5.25781 -5.25586 -5.25781 -5.25586 -5.25781 -5.25586 -5.25781 -5.25586 -5.25782 h -5.25586 v -5.25586 h -5.25781 v -5.25781 h 5.25781 v -5.25586 h 5.25586 v -5.25781 -5.25586 -5.25781 -5.25586 -5.25781 -5.25586 h -5.25586 v -0.002 -5.25586 -5.25781 h -5.25781 v -5.25586 -5.25781 h -5.25586 v -5.25586 h -5.25781 -5.25586 -5.25781 -5.25586 -5.25782 -5.25585 -5.25782 -5.25586 -5.25781 -5.25781 z"
       transform="scale(0.26458333)" />
    <path
       id="rect237-7-7-4-4-4-0-5-3-9-1-4-8-2-0-3-3"
       style="opacity:1;fill:#f7d6b5;fill-opacity:1;stroke-width:4.26062;stroke-linecap:round;paint-order:stroke fill markers"
       d="m 8.6542969,143.07812 v 5.25782 5.25586 h 5.2558591 5.257813 v -5.25586 -5.25782 h -5.257813 z"
       transform="scale(0.26458333)" />
    <path
       id="rect237-7-4-5-8-6-9-2-7-8-6-9-4-2-2-9-1-8-9"
       style="opacity:1;fill:#000000;stroke-width:4.26062;stroke-linecap:round;paint-order:stroke fill markers"
       d="m 19.167969,148.33594 v 5.25586 h -5.257813 v 5.25781 h 5.257813 5.255859 v -5.25781 -5.25586 z"
       transform="scale(0.26458333)" />
    <path
       style="opacity:1;fill:#000000;stroke-width:4.26062;stroke-linecap:round;paint-order:stroke fill markers"
       d="m 50.708984,290.27148 v -5.25781 -5.25586 h -5.255859 v 5.25586 5.25781 z"
       transform="scale(0.26458333)"
       id="path11131" />
    <path
       style="opacity:1;fill:#000000;stroke-width:4.26062;stroke-linecap:round;paint-order:stroke fill markers"
       d="m 113.79102,263.98633 v 5.25781 h -5.25586 v 5.25586 5.25781 h -5.25782 v 5.25586 5.25781 h -5.255856 v 5.25782 H 92.763672 87.507812 82.25 76.994141 71.736328 66.480469 61.222656 55.966797 v -5.25782 h -5.257813 v 5.25782 5.25586 h 5.257813 v 5.25781 5.25586 h 5.255859 v 5.25781 h 5.257813 5.255859 5.257813 5.255859 5.257812 5.25586 5.257812 5.255856 v -5.25781 h 5.25782 v -5.25586 -5.25781 h 5.25586 v -5.25586 -5.25782 h 5.25781 v -5.25781 -5.25586 -5.25781 -5.25586 -5.25781 z"
       transform="scale(0.26458333)"
       id="path11129" />
    <path
       style="opacity:1;fill:#000000;stroke-width:4.26062;stroke-linecap:round;paint-order:stroke fill markers"
       d="m 45.453125,232.44531 v 5.25781 5.25586 h 5.255859 v 5.25782 5.25586 h 5.257813 5.255859 5.257813 5.255859 5.257813 H 82.25 v -5.25586 h -5.255859 -5.257813 v -5.25782 h -5.255859 -5.257813 v -5.25586 h -5.255859 -5.257813 v -5.25781 z"
       transform="scale(0.26458333)"
       id="path11127" />
    <path
       style="opacity:1;fill:#000000;stroke-width:4.26062;stroke-linecap:round;paint-order:stroke fill markers"
       d="m 76.994141,211.41797 v 5.25781 H 82.25 v 5.25586 h 5.257812 5.25586 v 5.25781 h 5.257812 5.255856 v 5.25586 h 5.25782 5.25586 5.25781 v -5.25586 -5.25781 -5.25586 h -5.25781 v -5.25781 h -5.25586 -5.25782 -5.255856 -5.257812 -5.25586 H 82.25 Z"
       transform="scale(0.26458333)"
       id="rect237-9-5-24" />
    <path
       id="rect237-7-4-4-2-6-7-2-7-4-1-9-5-90-5-69-2"
       style="opacity:1;fill:#000000;stroke-width:4.26062;stroke-linecap:round;paint-order:stroke fill markers"
       d="m 155.84766,190.39062 v 5.25586 5.25782 5.25586 5.25781 5.25781 5.25586 5.25781 5.25586 5.25781 5.25586 5.25782 5.25586 h 5.25586 v -5.25586 -5.25782 -5.25586 -5.25781 -5.25586 -5.25781 -5.25586 -5.25781 -5.25781 -5.25586 -5.25782 -5.25586 z"
       transform="scale(0.26458333)" />
    <path
       id="rect237-5-9-2-6-75-8-3-2-1-1-5"
       style="opacity:1;fill:#f7d6b5;fill-opacity:1;stroke-width:4.26062;stroke-linecap:round;paint-order:stroke fill markers"
       d="m 124.30664,169.36328 v 5.25586 5.25781 5.25586 h -0.002 v 5.25781 5.25586 5.25782 5.25586 5.25781 5.25781 5.25586 5.25781 5.25586 5.25781 5.25586 5.25782 5.25586 5.25781 5.25586 5.25781 h 5.25781 v 5.25586 5.25781 h 5.25781 v 5.25586 5.25781 h 5.25586 v 5.25586 h 5.25781 5.25586 5.25782 5.25586 5.25781 5.25586 5.25781 5.25586 v -5.25586 h 5.25781 v -5.25781 -5.25586 h 5.25586 V 274.5 269.24414 h 5.25781 v -5.25781 -5.25586 -5.25781 -5.25586 -5.25782 -5.25586 -5.25781 -5.25586 -5.25781 -5.25586 -5.25781 -5.25586 -5.25781 -5.25782 -5.25586 -5.25781 -5.25586 -5.25781 -5.25586 h -5.25781 -5.25586 -5.25781 -5.25586 -5.25781 -5.25586 v 5.25586 5.25781 5.25586 5.25781 5.25586 5.25782 5.25781 5.25586 5.25781 5.25586 5.25781 5.25586 5.25781 5.25586 5.25782 5.25586 h -5.25781 -5.25586 v -5.25586 -5.25782 -5.25586 -5.25781 -5.25586 -5.25781 -5.25586 -5.25781 -5.25781 -5.25586 -5.25782 -5.25586 -5.25781 -5.25586 -5.25781 -5.25586 h -5.25782 -5.25586 -5.25781 -5.25586 -5.25781 z"
       transform="scale(0.26458333)" />
    <path
       style="opacity:1;fill:#000000;stroke-width:4.26062;stroke-linecap:round;paint-order:stroke fill markers"
       d="m 134.82031,290.27148 v -5.25781 -5.25586 h -5.25781 v 5.25586 5.25781 z"
       transform="scale(0.26458333)"
       id="path11135" />
    <path
       style="opacity:1;fill:#000000;stroke-width:4.26062;stroke-linecap:round;paint-order:stroke fill markers"
       d="m 197.90234,190.39062 v 5.25586 5.25782 5.25781 5.25586 5.25781 5.25586 5.25781 5.25586 5.25781 5.25586 5.25782 5.25586 5.25781 5.25586 5.25781 h -5.25781 v 5.25586 5.25781 h -5.25586 v 5.25586 5.25781 h -5.25781 v 5.25586 h -5.25586 -5.25781 -5.25586 -5.25781 -5.25586 -5.25782 -5.25586 -5.25781 v -5.25586 h -5.25586 v 5.25586 5.25782 h 5.25586 v 5.25781 5.25586 h 5.25781 v 5.25781 h 5.25586 5.25782 5.25586 5.25781 5.25586 5.25781 5.25586 5.25781 v -5.25781 h 5.25586 v -5.25586 -5.25781 h 5.25781 v -5.25782 -5.25586 h 5.25586 v -5.25781 -5.25586 -5.25781 -5.25586 -5.25781 -5.25586 -5.25781 -5.25586 -5.25782 -5.25586 -5.25781 -5.25586 -5.25781 -5.25586 -5.25781 -5.25586 -5.25781 -5.25782 -5.25586 z"
       transform="scale(0.26458333)"
       id="rect237-5-9-2-6-75-8-3-9-5-6-33-9-7" />
    <path
       id="rect237-7-4-4-2-6-7-2-7-4-1-9-0-1-7-4-7"
       style="opacity:1;fill:#000000;stroke-width:4.26062;stroke-linecap:round;paint-order:stroke fill markers"
       d="m 239.95703,211.41797 v 5.25781 5.25586 5.25781 5.25586 5.25781 5.25586 5.25782 5.25586 5.25781 5.25586 5.25781 5.25586 5.25781 5.25781 5.25586 5.25782 h -5.25586 -5.25781 -5.25586 -5.25781 -5.25781 v 5.25586 5.25781 5.25586 5.25781 h 5.25781 5.25781 5.25586 5.25781 5.25586 5.25781 v -5.25781 -5.25586 -5.25781 -5.25586 -5.25782 -5.25586 -5.25781 -5.25781 -5.25586 -5.25781 -5.25586 -5.25781 -5.25586 -5.25782 -5.25586 -5.25781 -5.25586 -5.25781 -5.25586 -5.25781 z"
       transform="scale(0.26458333)" />
    <path
       id="rect237-7-4-4-2-6-7-2-7-4-1-9-3-4-5-33-2-1"
       style="opacity:1;fill:#000000;stroke-width:4.26062;stroke-linecap:round;paint-order:stroke fill markers"
       d="m 282.01172,211.41797 v 5.25781 5.25586 5.25781 h -5.25586 v 5.25586 5.25781 h -5.25781 v 5.25586 5.25782 h -5.25586 v 5.25586 h -5.25781 -5.25586 -5.25782 v 5.25781 5.25586 5.25781 5.25586 h 5.25782 5.25586 5.25781 5.25586 v -5.25586 h 5.25781 v -5.25781 -5.25586 h 5.25586 v -5.25781 -5.25586 h 5.25781 v -5.25782 -5.25586 -5.25781 -5.25586 -5.25781 -5.25586 -5.25781 z"
       transform="scale(0.26458333)" />
    <path
       id="rect237-5-9-2-6-75-6-7-9-0-2-24-7-5-5"
       style="opacity:1;fill:#000000;stroke-width:4.26062;stroke-linecap:round;paint-order:stroke fill markers"
       d="m 366.12305,274.5 v 5.25781 5.25781 5.25586 5.25782 h -5.25782 -5.25585 -5.25782 -5.25586 -5.25781 -5.25586 -5.25781 -5.25586 -5.25781 -5.25586 -5.25781 v -5.25782 h -5.25782 v 5.25782 5.25586 h 5.25782 v 5.25781 5.25586 h 5.25781 v 5.25781 h 5.25586 5.25781 5.25586 5.25781 5.25586 5.25781 5.25586 5.25782 5.25585 5.25782 5.25586 v -5.25781 -5.25586 -5.25781 -5.25586 -5.25782 -5.25586 -5.25781 V 274.5 Z m -63.08399,15.77148 v -5.25586 -5.25781 h -5.25586 v 5.25781 5.25586 z"
       transform="scale(0.26458333)" />
    <path
       id="rect237-5-9-2-6-75-6-74-3-4-0-2-6-6-2-9-8-6"
       style="opacity:1;fill:#000000;stroke-width:4.26062;stroke-linecap:round;paint-order:stroke fill markers"
       d="m 366.12305,190.39062 v 5.25782 5.25586 5.25781 5.25586 h -5.25782 -5.25585 -5.25782 -5.25586 -5.25781 -5.25586 -5.25781 -5.25586 v 5.25781 5.25586 5.25781 5.25586 5.25781 5.25586 5.25782 5.25586 h 5.25586 v -5.25586 -5.25782 -5.25586 -5.25781 -5.25586 -5.25781 -5.25586 h 5.25781 5.25586 5.25781 5.25586 5.25782 5.25585 v 5.25586 5.25781 5.25586 h 5.25782 5.25586 v -5.25586 -5.25781 -5.25586 -5.25781 -5.25586 -5.25781 -5.25586 -5.25782 z"
       transform="scale(0.26458333)" />
    <path
       id="rect237-5-9-2-6-75-6-74-3-4-0-2-6-6-2-9-8-48"
       style="opacity:1;fill:#000000;stroke-width:4.26062;stroke-linecap:round;paint-order:stroke fill markers"
       d="m 360.86523,237.70312 v 5.25586 5.25782 h -5.25585 -5.25782 -5.25586 -5.25781 -5.25586 v 5.25586 h 5.25586 5.25781 5.25586 5.25782 5.25585 5.25782 v -5.25586 -5.25782 -5.25586 z"
       transform="scale(0.26458333)" />
    <path
       id="rect237-7-4-4-2-6-7-2-7-4-1-9-0-1-7-4-9-9"
       style="opacity:1;fill:#000000;stroke-width:4.26062;stroke-linecap:round;paint-order:stroke fill markers"
       d="m 408.17773,211.41797 v 5.25781 5.25586 5.25781 5.25586 5.25781 5.25586 5.25782 5.25586 5.25781 5.25586 5.25781 5.25586 5.25781 5.25781 5.25586 5.25782 h -5.25585 -5.25782 -5.25586 -5.25781 -5.25781 v 5.25586 5.25781 5.25586 5.25781 h 5.25781 5.25781 5.25586 5.25782 5.25585 5.25782 v -5.25781 -5.25586 -5.25781 -5.25586 -5.25782 -5.25586 -5.25781 -5.25781 -5.25586 -5.25781 -5.25586 -5.25781 -5.25586 -5.25782 -5.25586 -5.25781 -5.25586 -5.25781 -5.25586 -5.25781 z"
       transform="scale(0.26458333)" />
    <path
       id="rect237-7-4-4-2-6-7-2-7-4-1-9-5-9-3-2-63-0-62-6-1"
       style="opacity:1;fill:#000000;stroke-width:4.26062;stroke-linecap:round;paint-order:stroke fill markers"
       d="m 450.23242,211.41797 v 5.25781 5.25586 5.25781 h -5.25586 v 5.25586 h -5.25781 v 5.25781 h 5.25781 v 5.25586 h 5.25586 v 5.25782 h 5.25781 v -5.25782 -5.25586 -5.25781 -5.25586 -5.25781 -5.25586 -5.25781 z"
       transform="scale(0.26458333)" />
    <path
       id="rect237-7-4-4-2-6-7-2-7-4-1-9-3-4-5-33-2-8-5-6-4-11"
       style="opacity:1;fill:#000000;stroke-width:4.26062;stroke-linecap:round;paint-order:stroke fill markers"
       d="m 450.23242,263.98633 v 5.25781 5.25586 5.25781 5.25586 5.25781 5.25782 h -5.25586 -5.25781 -5.25586 -5.25781 -5.25586 v 5.25586 5.25781 5.25586 5.25781 h 5.25586 5.25781 5.25586 5.25781 5.25586 5.25781 v -5.25781 -5.25586 -5.25781 -5.25782 -5.25586 -5.25781 -5.25586 -5.25781 -5.25586 -5.25781 z"
       transform="scale(0.26458333)" />
    <path
       id="rect237-7-4-4-2-6-7-2-7-4-30"
       style="opacity:1;fill:#000000;stroke-width:4.26062;stroke-linecap:round;paint-order:stroke fill markers"
       d="m 71.736328,379.63867 v 5.25781 5.25586 5.25782 5.25586 5.25781 5.25586 5.25781 5.25586 5.25781 5.25586 5.25781 5.25586 5.25782 5.25586 5.25781 5.25586 5.25781 5.25781 5.25586 5.25781 5.25586 5.25782 5.25586 5.25781 5.25586 5.25781 5.25586 5.25781 5.25586 5.25781 5.25586 5.25782 h -5.255859 -5.257813 -5.255859 -5.257813 -5.255859 v 5.25585 5.25782 5.25781 5.25586 h 5.255859 5.257813 5.255859 5.257813 5.255859 5.257813 v -5.25586 -5.25781 -5.25782 -5.25585 -5.25782 -5.25586 -5.25781 -5.25586 -5.25781 -5.25586 -5.25781 -5.25586 -5.25781 -5.25586 -5.25782 -5.25586 -5.25781 -5.25586 -5.25781 -5.25781 -5.25586 -5.25781 -5.25586 -5.25782 -5.25586 -5.25781 -5.25586 -5.25781 -5.25586 -5.25781 -5.25586 -5.25781 H 82.25 v -5.25586 -5.25782 -5.25586 -5.25781 h -5.255859 z"
       transform="scale(0.26458333)" />
    <path
       id="rect237-7-4-4-2-6-7-2-7-4-30-7"
       style="opacity:1;fill:#000000;stroke-width:4.26062;stroke-linecap:round;paint-order:stroke fill markers"
       d="m 113.79102,379.63867 v 5.25586 5.25781 5.25782 5.25586 5.25781 5.25586 5.25781 5.25586 5.25781 5.25586 5.25781 5.25586 5.25782 5.25586 5.25781 5.25586 5.25781 5.25586 5.25781 5.25781 5.25586 5.25782 5.25586 5.25781 5.25586 5.25781 5.25586 5.25781 5.25586 5.25781 5.25586 5.25782 h -5.25586 -5.25782 -5.255856 -5.257812 -5.25586 v 5.25585 5.25782 5.25781 5.25586 h 5.25586 5.257812 5.255856 5.25782 5.25586 5.25781 v -5.25586 -5.25781 -5.25782 -5.25585 -5.25782 -5.25586 -5.25781 -5.25586 -5.25781 -5.25586 -5.25781 -5.25586 -5.25781 -5.25586 -5.25782 -5.25586 -5.25781 -5.25781 -5.25586 -5.25781 -5.25586 -5.25781 -5.25586 -5.25782 -5.25586 -5.25781 -5.25586 -5.25781 -5.25586 -5.25781 -5.25586 -5.25781 h 5.25586 v -5.25586 -5.25782 -5.25781 -5.25586 h -5.25586 z"
       transform="scale(0.26458333)" />
    <path
       id="rect237-7-4-4-2-6-7-2-7-4-30-8"
       style="opacity:1;fill:#000000;stroke-width:4.26062;stroke-linecap:round;paint-order:stroke fill markers"
       d="m 155.84766,379.63867 v 5.25781 5.25586 5.25782 5.25586 5.25781 5.25586 5.25781 5.25586 5.25781 5.25586 5.25781 5.25586 5.25782 5.25586 5.25781 5.25586 5.25781 5.25781 5.25586 5.25781 5.25586 5.25782 5.25586 5.25781 5.25586 5.25781 5.25586 5.25781 5.25586 5.25781 5.25586 5.25782 h -5.25782 -5.25586 -5.25781 -5.25586 -5.25781 v 5.25585 5.25782 5.25781 5.25586 h 5.25781 5.25586 5.25781 5.25586 5.25782 5.25586 v -5.25586 -5.25781 -5.25782 -5.25585 -5.25782 -5.25586 -5.25781 -5.25586 -5.25781 -5.25586 -5.25781 -5.25586 -5.25781 -5.25586 -5.25782 -5.25586 -5.25781 -5.25586 -5.25781 -5.25781 -5.25586 -5.25781 -5.25586 -5.25782 -5.25586 -5.25781 -5.25586 -5.25781 -5.25586 -5.25781 -5.25586 -5.25781 -5.25586 -5.25782 -5.25586 -5.25781 z"
       transform="scale(0.26458333)" />
    <path
       id="rect237-7-4-4-2-6-7-2-7-4-3-8"
       style="opacity:1;fill:#000000;stroke-width:4.26062;stroke-linecap:round;paint-order:stroke fill markers"
       d="m 197.90234,379.63867 v 5.25781 5.25586 5.25782 5.25586 5.25781 5.25586 5.25781 5.25586 5.25781 5.25586 5.25781 5.25586 5.25782 5.25586 5.25781 5.25586 h 5.25586 v -5.25586 -5.25781 -5.25586 -5.25782 -5.25586 -5.25781 -5.25586 -5.25781 -5.25586 -5.25781 -5.25586 -5.25781 h 5.25782 v -5.25586 -5.25782 -5.25586 -5.25781 h -5.25782 z"
       transform="scale(0.26458333)" />
    <path
       id="rect237-7-4-4-2-6-7-2-7-4-1-9-5-9-3-2-9-9"
       style="opacity:1;fill:#000000;stroke-width:4.26062;stroke-linecap:round;paint-order:stroke fill markers"
       d="m 197.90234,505.80469 v 5.25586 5.25781 5.25586 5.25781 5.25586 5.25781 5.25586 5.25782 h -5.25781 -5.25586 -5.25781 -5.25586 -5.25781 v 5.25585 5.25782 5.25781 5.25586 h 5.25781 5.25586 5.25781 5.25586 5.25781 5.25586 v -5.25586 -5.25781 -5.25782 -5.25585 -5.25782 -5.25586 -5.25781 -5.25586 h 5.25782 v -5.25781 -5.25586 -5.25781 -5.25586 h -5.25782 z"
       transform="scale(0.26458333)" />
    <path
       id="rect237-7-4-4-2-6-7-2-7-4-1-9-5-9-3-2-9-9-5"
       style="opacity:1;fill:#000000;stroke-width:4.26062;stroke-linecap:round;paint-order:stroke fill markers"
       d="m 239.95703,379.63867 v 5.25781 5.25586 5.25782 5.25586 5.25781 5.25586 5.25781 5.25586 5.25781 5.25586 5.25781 5.25586 5.25782 5.25586 5.25781 5.25586 5.25781 5.25781 5.25586 5.25781 5.25586 5.25782 5.25586 5.25781 5.25586 5.25781 5.25586 5.25781 5.25586 5.25781 5.25586 5.25782 h -5.25586 -5.25781 -5.25586 -5.25781 -5.25781 v 5.25585 5.25782 5.25781 5.25586 h 5.25781 5.25781 5.25586 5.25781 5.25586 5.25781 v -5.25586 -5.25781 -5.25782 -5.25585 -5.25782 -5.25586 -5.25781 -5.25586 -5.25781 -5.25586 -5.25781 -5.25586 -5.25781 -5.25586 -5.25782 -5.25586 -5.25781 -5.25586 -5.25781 -5.25781 -5.25586 -5.25781 -5.25586 -5.25782 -5.25586 -5.25781 -5.25586 -5.25781 -5.25586 -5.25781 -5.25586 -5.25781 -5.25586 -5.25782 -5.25586 -5.25781 z"
       transform="scale(0.26458333)" />
    <path
       id="rect237-7-4-4-2-6-7-2-7-4-30-8-3"
       style="opacity:1;fill:#000000;stroke-width:4.26062;stroke-linecap:round;paint-order:stroke fill markers"
       d="m 366.12305,358.61133 v 5.25586 5.25781 5.25586 5.25781 5.25586 5.25781 5.25782 5.25586 5.25781 5.25586 5.25781 5.25586 5.25781 5.25586 5.25781 5.25586 5.25782 5.25586 5.25781 5.25586 5.25781 5.25586 5.25781 5.25781 5.25586 5.25782 5.25586 5.25781 5.25586 5.25781 5.25586 5.25781 5.25586 5.25781 5.25586 5.25782 h -5.25782 -5.25585 -5.25782 -5.25586 -5.25781 v 5.25585 5.25782 5.25781 5.25586 h 5.25781 5.25586 5.25782 5.25585 5.25782 5.25586 v -5.25586 -5.25781 -5.25782 -5.25585 -5.25782 -5.25586 -5.25781 -5.25586 -5.25781 -5.25586 -5.25781 -5.25586 -5.25781 -5.25586 -5.25782 -5.25586 -5.25781 -5.25781 -5.25586 -5.25781 -5.25586 -5.25781 -5.25586 -5.25782 -5.25586 -5.25781 -5.25586 -5.25781 -5.25586 -5.25781 -5.25586 -5.25781 -5.25586 -5.25782 -5.25781 -5.25586 -5.25781 -5.25586 -5.25781 -5.25586 z"
       transform="scale(0.26458333)" />
    <path
       id="rect237-5-9-2-6-75-8-8-0-7-0-4-9-0-8-6-3-45-2"
       style="opacity:1;fill:#000000;stroke-width:4.26062;stroke-linecap:round;paint-order:stroke fill markers"
       d="m 450.23242,379.63867 v 5.25781 5.25586 5.25782 5.25586 5.25781 5.25586 5.25781 5.25586 5.25781 5.25586 5.25781 5.25586 5.25782 5.25586 5.25781 5.25781 5.25586 5.25781 5.25586 5.25781 5.25586 5.25782 5.25586 5.25781 5.25586 5.25781 5.25586 h -5.25586 v 5.25781 5.25586 h -5.25781 v 5.25781 5.25586 h -5.25586 v 5.25782 h -5.25781 -5.25586 -5.25781 -5.25782 -5.25586 -5.25781 -5.25586 -5.25781 v -5.25782 h -5.25586 v 5.25782 5.25585 h 5.25586 v 5.25782 5.25781 h 5.25781 v 5.25586 h 5.25586 5.25781 5.25586 5.25782 5.25781 5.25586 5.25781 5.25586 v -5.25586 h 5.25781 v -5.25781 -5.25782 h 5.25586 v -5.25585 -5.25782 h 5.25781 v -5.25586 -5.25781 -5.25586 -5.25781 -5.25586 -5.25781 -5.25586 -5.25781 -5.25586 -5.25782 -5.25586 -5.25781 -5.25586 -5.25781 -5.25586 -5.25781 -5.25781 -5.25586 -5.25782 -5.25586 -5.25781 -5.25586 -5.25781 -5.25586 -5.25781 -5.25586 -5.25781 -5.25586 -5.25782 -5.25586 -5.25781 z m -63.08203,162.96289 v -5.25586 -5.25781 h -5.25781 v 5.25781 5.25586 z"
       transform="scale(0.26458333)" />
    <path
       id="rect237-7-4-4-2-6-7-2-7-4-30-3"
       style="opacity:1;fill:#000000;stroke-width:4.26062;stroke-linecap:round;paint-order:stroke fill markers"
       d="m 408.17773,379.63867 v 5.25781 5.25586 5.25782 5.25586 5.25781 5.25586 5.25781 5.25586 5.25781 5.25586 5.25781 5.25586 5.25782 5.25586 5.25781 5.25586 5.25781 5.25781 5.25586 5.25781 5.25586 5.25782 5.25586 5.25781 h 5.25782 v -5.25781 -5.25586 -5.25782 -5.25586 -5.25781 -5.25586 -5.25781 -5.25781 -5.25586 -5.25781 -5.25586 -5.25782 -5.25586 -5.25781 -5.25586 -5.25781 -5.25586 -5.25781 -5.25586 -5.25781 h 5.25586 v -5.25586 -5.25782 -5.25586 -5.25781 h -5.25586 z"
       transform="scale(0.26458333)" />
    <path
       id="rect237-7-4-4-2-6-7-2-7-4-30-9"
       style="opacity:1;fill:#000000;stroke-width:4.26062;stroke-linecap:round;paint-order:stroke fill markers"
       d="m 534.34375,379.63867 v 5.25586 5.25781 5.25782 5.25586 5.25781 5.25586 5.25781 5.25586 5.25781 5.25586 5.25781 5.25586 5.25782 5.25586 5.25781 5.25586 5.25781 5.25586 5.25781 5.25781 5.25586 5.25782 5.25586 5.25781 5.25586 5.25781 5.25586 5.25781 5.25586 5.25781 5.25586 5.25782 h -5.25781 -5.25586 -5.25781 -5.25586 -5.25782 v 5.25585 5.25782 5.25781 5.25586 h 5.25782 5.25586 5.25781 5.25586 5.25781 5.25586 v -5.25586 -5.25781 -5.25782 -5.25585 -5.25782 -5.25586 -5.25781 -5.25586 -5.25781 -5.25586 -5.25781 -5.25586 -5.25781 -5.25586 -5.25782 -5.25586 h 5.25781 v -5.25781 -5.25781 -5.25586 -5.25781 h -5.25781 v -5.25586 -5.25781 -5.25586 -5.25782 -5.25586 -5.25781 -5.25586 -5.25781 -5.25586 -5.25781 -5.25586 -5.25781 h 5.25781 v -5.25586 -5.25782 -5.25781 -5.25586 h -5.25781 z"
       transform="scale(0.26458333)" />
    <path
       id="rect237-7-4-5-8-6-5-0-0-7-5-8-4-6-0-6-0-0-2-8"
       style="opacity:1;fill:#000000;stroke-width:4.26062;stroke-linecap:round;paint-order:stroke fill markers"
       d="m 576.39844,474.26172 v 5.25781 5.25586 5.25781 5.25782 5.25586 5.25781 5.25586 5.25781 5.25586 h -5.25782 v 5.25781 5.25586 h -5.25585 v 5.25781 5.25586 h -5.25782 v 5.25782 h -5.25586 -5.25781 -5.25586 v 5.25585 5.25782 5.25586 5.25781 h 5.25586 5.25781 5.25586 5.25782 v -5.25781 h 5.25585 v -5.25586 -5.25782 h 5.25782 v -5.25585 -5.25782 h 5.25586 v -5.25586 -5.25781 -5.25586 -5.25781 -5.25586 -5.25781 -5.25586 -5.25781 -5.25586 -5.25782 -5.25781 -5.25586 -5.25781 z"
       transform="scale(0.26458333)" />
    <path
       id="rect237-7-4-4-2-6-7-2-7-4-1-9-5-1-70-3-00"
       style="opacity:1;fill:#000000;stroke-width:4.26062;stroke-linecap:round;paint-order:stroke fill markers"
       d="m 576.39844,379.63867 v 5.25781 5.25586 5.25782 5.25586 5.25781 5.25586 5.25781 5.25586 5.25781 5.25586 5.25781 h -5.25782 v 5.25586 h -5.25585 v 5.25782 h 5.25585 v 5.25586 h 5.25782 v 5.25781 h 5.25586 v -5.25781 -5.25586 -5.25782 -5.25586 -5.25781 -5.25586 -5.25781 -5.25586 -5.25781 -5.25586 -5.25781 -5.25586 -5.25782 -5.25586 -5.25781 z"
       transform="scale(0.26458333)" />
    <path
       id="rect237-7-4-4-0-8-9-0-0-1-9-0-3-6-7"
       style="opacity:1;fill:#f7d6b5;fill-opacity:1;stroke-width:4.26062;stroke-linecap:round;paint-order:stroke fill markers"
       d="m 250.4707,337.58398 v 5.25586 5.25782 5.25586 5.25781 5.25586 5.25781 5.25586 5.25781 5.25781 5.25586 5.25782 5.25586 5.25781 5.25586 5.25781 5.25586 5.25781 5.25586 5.25781 5.25586 5.25782 5.25586 5.25781 5.25586 5.25781 5.25781 5.25586 5.25781 5.25586 5.25782 5.25586 5.25781 5.25586 5.25781 5.25586 5.25781 5.25586 5.25781 5.25586 5.25782 h 5.25782 5.25586 5.25781 5.25586 5.25781 5.25586 v -5.25782 -5.25586 -5.25781 -5.25586 -5.25781 -5.25586 -5.25781 -5.25586 -5.25781 -5.25586 -5.25782 -5.25586 -5.25781 -5.25586 -5.25781 -5.25781 -5.25586 -5.25781 -5.25586 -5.25782 -5.25586 -5.25781 -5.25586 -5.25781 -5.25586 -5.25781 -5.25586 -5.25781 -5.25586 -5.25782 -5.25586 -5.25781 h 5.25781 5.25586 v 5.25781 5.25586 5.25782 5.25586 5.25781 5.25586 5.25781 5.25586 h -5.25586 v 5.25781 5.25586 5.25781 5.25586 5.25782 5.25586 5.25781 5.25781 h 5.25586 v 5.25586 5.25781 5.25586 5.25781 5.25586 5.25782 5.25586 5.25781 5.25586 5.25781 5.25586 5.25781 5.25586 5.25781 5.25586 5.25782 h 5.25781 5.25586 5.25782 5.25781 5.25586 5.25781 v -5.25782 -5.25586 -5.25781 -5.25586 -5.25781 -5.25586 -5.25781 -5.25586 -5.25781 -5.25586 -5.25782 -5.25586 -5.25781 -5.25586 -5.25781 -5.25586 -5.25781 -5.25781 h -5.25781 v -5.25586 h -5.25586 v -5.25782 h 5.25586 v -5.25586 h 5.25781 v -5.25781 -5.25586 -5.25781 -5.25586 -5.25781 -5.25586 -5.25781 -5.25586 -5.25782 -5.25586 -5.25781 -5.25781 -5.25586 -5.25781 h -5.25781 v -5.25586 -5.25781 h -5.25586 v -5.25586 -5.25782 h -5.25781 v -5.25586 h -5.25586 -5.25782 -5.25781 -5.25586 -5.25781 -5.25586 -5.25781 -5.25586 -5.25781 -5.25586 z"
       transform="scale(0.26458333)" />
    <path
       id="rect237-7-4-4-2-6-7-2-7-4-30-78"
       style="opacity:1;fill:#000000;stroke-width:4.26062;stroke-linecap:round;paint-order:stroke fill markers"
       d="m 282.01172,379.63867 v 5.25586 5.25781 5.25782 5.25586 5.25781 5.25586 5.25781 5.25586 5.25781 5.25586 5.25781 5.25586 5.25782 5.25586 5.25781 5.25586 5.25781 5.25586 5.25781 5.25781 5.25586 5.25782 5.25586 5.25781 5.25586 5.25781 5.25586 5.25781 5.25586 5.25781 5.25586 5.25782 h -5.25586 -5.25781 -5.25586 -5.25781 -5.25586 v 5.25585 5.25782 5.25781 5.25586 h 5.25586 5.25781 5.25586 5.25781 5.25586 5.25781 v -5.25586 -5.25781 -5.25782 -5.25585 -5.25782 -5.25586 -5.25781 -5.25586 -5.25781 -5.25586 -5.25781 -5.25586 -5.25781 -5.25586 -5.25782 -5.25586 -5.25781 -5.25781 -5.25586 -5.25781 -5.25586 -5.25781 -5.25586 -5.25782 -5.25586 -5.25781 -5.25586 -5.25781 -5.25586 -5.25781 -5.25586 -5.25781 h 5.25586 v -5.25586 -5.25782 -5.25781 -5.25586 h -5.25586 z"
       transform="scale(0.26458333)" />
    <path
       id="rect237-7-4-4-2-6-7-2-7-4-1-9-5-9-3-2-9-9-5-2"
       style="opacity:1;fill:#000000;stroke-width:4.26062;stroke-linecap:round;paint-order:stroke fill markers"
       d="m 324.06836,474.26367 v 5.25586 5.25781 5.25586 5.25782 5.25586 5.25781 5.25586 5.25781 5.25586 5.25781 5.25586 5.25781 5.25586 5.25782 h -5.25781 -5.25586 -5.25781 -5.25782 -5.25586 v 5.25585 5.25782 5.25781 5.25586 h 5.25586 5.25782 5.25781 5.25586 5.25781 5.25586 v -5.25586 -5.25781 -5.25586 -5.25781 -5.25782 -5.25586 -5.25781 -5.25586 -5.25781 -5.25586 -5.25781 -5.25586 -5.25781 -5.25586 -5.25782 -5.25586 -5.25781 -5.25586 z"
       transform="scale(0.26458333)" />
    <path
       id="rect237-7-4-4-2-6-7-2-7-4-1-9-5-9-3-2-9-9-5-2-4"
       style="opacity:1;fill:#000000;stroke-width:4.26062;stroke-linecap:round;paint-order:stroke fill markers"
       d="m 324.06836,379.63867 v 5.25781 5.25586 5.25782 5.25586 5.25781 5.25586 5.25781 5.25586 5.25781 5.25586 5.25781 h -5.25781 v 5.25586 h -5.25586 v 5.25782 h 5.25586 v 5.25586 h 5.25781 v 5.25781 h 5.25586 v -5.25781 -5.25586 -5.25782 -5.25586 -5.25781 -5.25586 -5.25781 -5.25586 -5.25781 -5.25586 -5.25781 -5.25586 -5.25782 -5.25586 -5.25781 z"
       transform="scale(0.26458333)" />
    <path
       id="rect237-7-4-5-8-6-5-0-5-1-7-1-9-9-0-0"
       style="opacity:1;fill:#000000;stroke-width:4.26062;stroke-linecap:round;paint-order:stroke fill markers"
       d="m 786.67383,379.63867 v 5.25781 5.25586 5.25782 5.25586 5.25781 5.25586 5.25781 5.25586 h 5.25781 v -5.25586 -5.25781 -5.25586 -5.25781 h 5.25586 v -5.25586 -5.25782 -5.25586 -5.25781 h -5.25586 z"
       transform="scale(0.26458333)" />
    <path
       id="rect237-5-9-2-6-75-1-6-42-06-6-0-4-8"
       style="opacity:1;fill:#000000;stroke-width:4.26062;stroke-linecap:round;paint-order:stroke fill markers"
       d="m 828.72852,379.63867 v 5.25781 5.25586 5.25782 5.25586 5.25781 5.25586 5.25781 5.25586 h -5.25586 -5.25782 -5.25586 -5.25781 -5.25586 v 5.25781 5.25586 h 5.25586 v 5.25781 h 5.25781 5.25586 v 5.25586 h 5.25782 5.25586 5.25781 v -5.25586 -5.25781 -5.25586 -5.25781 -5.25586 -5.25781 -5.25586 -5.25781 -5.25586 -5.25782 -5.25586 -5.25781 z"
       transform="scale(0.26458333)" />
    <path
       id="rect237-5-9-2-6-75-8-3-2-4-1-9-7-3-3-0-3-4-3-4"
       style="opacity:1;fill:#000000;stroke-width:4.26062;stroke-linecap:round;paint-order:stroke fill markers"
       d="m 760.38867,442.7207 v 5.25782 5.25586 h 5.25781 v 5.25781 5.25586 h 5.25586 5.25782 5.25586 5.25781 v 5.25781 5.25781 h 5.25586 v 5.25586 5.25781 h 5.25781 v -5.25781 -5.25586 -5.25781 -5.25586 -5.25781 h -5.25781 -5.25586 v -5.25781 h -5.25781 -5.25586 v -5.25586 h -5.25782 -5.25586 v -5.25782 z m 31.54102,42.05664 h -5.25586 v 5.25586 5.25782 5.25586 5.25781 h 5.25586 v -5.25781 -5.25586 -5.25782 z"
       transform="scale(0.26458333)" />
    <path
       id="rect237-5-9-2-6-75-8-8-0-7-0-4-9-0-8-6-3-0-4-3"
       style="opacity:1;fill:#000000;stroke-width:4.26062;stroke-linecap:round;paint-order:stroke fill markers"
       d="m 828.72852,474.26367 v 5.25586 5.25781 5.25586 5.25782 5.25586 5.25781 5.25586 5.25781 5.25586 h -5.25586 v 5.25781 5.25586 h -5.25782 v 5.25781 5.25586 h -5.25586 v 5.25782 h -5.25781 -5.25586 -5.25781 -5.25781 -5.25586 -5.25781 -5.25586 -5.25782 v -5.25782 h -5.25586 v 5.25782 5.25585 h 5.25586 v 5.25782 5.25781 h 5.25782 v 5.25586 h 5.25586 5.25781 5.25586 5.25781 5.25781 5.25586 5.25781 5.25586 v -5.25586 h 5.25782 v -5.25781 -5.25782 h 5.25586 v -5.25585 -5.25782 h 5.25781 v -5.25586 -5.25781 -5.25586 -5.25781 -5.25586 -5.25781 -5.25586 -5.25781 -5.25586 -5.25782 -5.25586 -5.25781 -5.25586 z m -63.08204,68.33789 v -5.25586 -5.25781 h -5.25781 v 5.25781 5.25586 z"
       transform="scale(0.26458333)" />
    <path
       id="rect237-5-9-2-6-75-8-3-9-5-65-8-9-3-1-4-3"
       style="opacity:1;fill:#000000;stroke-width:4.26062;stroke-linecap:round;paint-order:stroke fill markers"
       d="m 19.167969,568.88672 v 5.25781 h -5.257813 v 5.25586 h 5.257813 5.255859 v -5.25586 -5.25781 z"
       transform="scale(0.26458333)" />
    <path
       id="rect237-5-9-2-6-75-8-3-9-5-65-8-9-3-1-4-3-9-3-6"
       style="opacity:1;fill:#f7d6b5;fill-opacity:1;stroke-width:4.26062;stroke-linecap:round;paint-order:stroke fill markers"
       d="m 8.6542969,563.63086 v 5.25586 5.25781 h 5.2558591 5.257813 v -5.25781 -5.25586 h -5.257813 z"
       transform="scale(0.26458333)" />
    <path
       transform="matrix(0.26458333,0,0,0.26458333,-1.8830892,33.683215)"
       d="M 919.95508 0 L 919.95508 457.34961 L 925.21289 457.34961 L 925.21289 0 L 919.95703 0 L 919.95508 0 z M 0 457.35156 L 0 462.60742 L 919.95508 462.60742 L 919.95508 457.35156 L 0 457.35156 z "
       style="opacity:1;fill:#000000;fill-opacity:1;stroke-width:56.6842;stroke-linecap:round;paint-order:stroke fill markers"
       id="rect237-7-4-4-2-6-3-6-4-6-4-8-3-0-1-6-2-7-0-4-7-8-1-1-9-7-7-2-9" />
    <path
       id="rect237-5-9-2-6-75-8-8-3-5-3-6-9-1"
       style="opacity:1;fill:#000000;stroke-width:4.26062;stroke-linecap:round;paint-order:stroke fill markers"
       d="m 902.32617,148.33594 v 5.25586 h -5.25781 v 5.25781 h 5.25781 5.25586 v -5.25781 -5.25586 z"
       transform="scale(0.26458333)" />
    <path
       id="rect237-5-9-2-6-75-8-8-3-5-3-6-9-1-4-2-8"
       style="opacity:1;fill:#f7d6b5;fill-opacity:1;stroke-width:4.26062;stroke-linecap:round;paint-order:stroke fill markers"
       d="m 891.8125,143.07812 v 5.25782 5.25586 h 5.25586 5.25781 v -5.25586 -5.25782 h -5.25781 z"
       transform="scale(0.26458333)" />
    <path
       id="rect237-7-4-4-2-6-3-6-4-6-4-8-3-0-1-6-2-7-0-4-7-8-1-1-9-7-7-2-9-2"
       style="opacity:1;fill:#f7d6b5;fill-opacity:1;stroke-width:40.1628;stroke-linecap:round;paint-order:stroke fill markers"
       d="m -7.1171875,127.30664 v 5.25781 452.09375 H -1.859375 V 132.56445 H 912.83984 v -5.25781 H -1.859375 Z"
       transform="scale(0.26458333)" />
    <path
       d="m 241.52194,156.08143 h 1.39088 v -1.39088 h -1.39088 z"
       style="opacity:1;fill:#f6cba6;stroke-width:1.12729;stroke-linecap:round;paint-order:stroke fill markers;fill-opacity:1"
       id="rect237-7-7-4-4-4-0-5-3-9-5-9-9-6-9-7-9" />
  </g>
</svg>
